<?xml version="1.0" encoding="UTF-8"?>
<svg id="Layer_1" data-name="Layer 1" xmlns="http://www.w3.org/2000/svg" xmlns:xlink="http://www.w3.org/1999/xlink" viewBox="0 0 610.26 610.26">
  <defs>
    <clipPath id="clippath">
      <circle cx="305.13" cy="309.52" r="145.39" style="fill: none; stroke-width: 0px;"/>
    </clipPath>
  </defs>
  <circle cx="305.13" cy="309.52" r="217.26" style="fill: #5cdaff; stroke: #231f20; stroke-miterlimit: 10; stroke-width: 9px;"/>
  <g>
    <path d="M148.33,252.46c1.67-.84,3.14-1.08,4.43-.73,1.23.34,1.81,1.86,1.75,4.58-.06,2.71-.56,5.76-1.49,9.16-1.51,5.48-3.84,9.23-6.97,11.24s-7.99,2.11-14.56.29c-7.2-1.99-12.05-5.04-14.57-9.17-2.51-4.13-2.96-9.13-1.34-14.99,1.06-3.84,2.07-6.43,3.03-7.76.96-1.33,2.17-1.79,3.63-1.39,1.14.31,2.2,1.23,3.2,2.75-2.49,2.98-4.17,6.04-5.03,9.16-.72,2.62-.32,4.82,1.21,6.61,1.53,1.79,4.72,3.36,9.6,4.7,5.76,1.59,9.83,1.97,12.24,1.15,2.4-.82,4.08-2.97,5.04-6.43.85-3.07.8-6.12-.15-9.16Z" style="stroke-width: 0px;"/>
    <path d="M130.8,217.35c.76.05,1.44.24,2.05.57.59.32.94.65,1.05.98.11.33.03.74-.23,1.22l-1.03,1.9c2.06,1.22,5.58,3.16,10.54,5.83l6.64-12.27c-4.96-2.66-8.53-4.52-10.69-5.56l-1.51,2.79c-.88-.11-1.64-.35-2.3-.7-.46-.25-.73-.55-.81-.9-.08-.35.01-.76.27-1.24l6.9-12.77c.76.05,1.45.24,2.05.57.59.32.94.65,1.05.98.11.33.03.73-.21,1.19l-1.16,2.15c2.06,1.24,5.51,3.16,10.36,5.76,8.91,4.82,14.44,7.74,16.6,8.79l1.64-3.04c.74.04,1.43.23,2.06.57.58.31.92.64,1.04.98.12.34.05.74-.2,1.2l-6.96,12.87c-.88-.11-1.65-.35-2.33-.72-.44-.24-.71-.54-.78-.89-.08-.35.01-.76.27-1.24l.98-1.8c-1.7-1.03-5.75-3.28-12.15-6.76l-6.64,12.27c6.41,3.45,10.51,5.61,12.29,6.49l1.52-2.82c.74.04,1.43.23,2.05.57.58.31.92.64,1.04.98.11.34.04.75-.21,1.22l-6.94,12.84c-.88-.09-1.66-.33-2.34-.69-.44-.24-.7-.54-.77-.9s.02-.78.28-1.25l1.11-2.05c-2.06-1.22-7.56-4.25-16.48-9.07-4.83-2.59-8.33-4.42-10.48-5.47l-1.64,3.04c-.89-.1-1.66-.32-2.32-.68-.46-.25-.73-.55-.8-.91-.07-.36.02-.78.28-1.25l6.9-12.77Z" style="stroke-width: 0px;"/>
    <path d="M157.32,185.52c-.19-4.89,1.75-9.45,5.81-13.7,3.83-4,7.67-6.15,11.52-6.44s8.23,1.92,13.15,6.63c5.27,5.05,8,10.02,8.19,14.91s-1.81,9.51-5.99,13.88c-3.73,3.89-7.51,5.98-11.35,6.27-3.84.29-8.22-1.93-13.14-6.64-5.27-5.05-8-10.02-8.19-14.91ZM180.57,198.33c2.56.35,4.77-.46,6.65-2.42,1.97-2.05,2.65-4.23,2.04-6.53-.61-2.3-2.67-5.13-6.19-8.5-4.46-4.27-7.94-6.56-10.42-6.86-2.49-.3-4.68.54-6.57,2.51-1.97,2.05-2.65,4.23-2.04,6.53.61,2.3,2.67,5.13,6.19,8.5,4.34,4.16,7.78,6.41,10.34,6.76Z" style="stroke-width: 0px;"/>
    <path d="M205.92,143.48c-.72-.52-1.28-1.1-1.68-1.73-.28-.44-.36-.84-.25-1.19.11-.35.4-.67.86-.95l10.94-6.87c.64.42,1.14.92,1.51,1.51.36.57.5,1.03.43,1.37-.07.34-.33.66-.77.93l-1.83,1.15c1.19,2.08,4.13,6.83,8.82,14.26,3.77,6.01,5.15,10.83,4.13,14.48-1.02,3.64-3.86,6.93-8.52,9.85-4.22,2.65-7.62,3.69-10.2,3.14-2.58-.56-5.2-2.95-7.86-7.18-6.53-10.4-10.47-16.59-11.82-18.57l-2.24,1.4c-.71-.53-1.26-1.11-1.66-1.74-.28-.44-.36-.84-.26-1.18.1-.34.39-.66.85-.95l11.37-7.13c.64.42,1.14.92,1.51,1.51.36.57.5,1.03.43,1.37-.07.34-.33.65-.77.93l-1.62,1.01c1.23,2.14,4.08,6.77,8.55,13.89,2.91,4.63,5.28,7.38,7.13,8.24,1.85.86,3.77.66,5.79-.6,2.12-1.33,3.21-2.91,3.27-4.74.06-1.83-1.12-4.66-3.53-8.49-5.17-8.24-8.47-13.38-9.88-15.42l-2.71,1.7Z" style="stroke-width: 0px;"/>
    <path d="M261.46,116.29c.52.56.89,1.17,1.1,1.82.21.64.24,1.12.09,1.43-.15.32-.49.56-1,.73l-1.63.54-7.41,14.74c6.86,5.74,11.14,9.24,12.86,10.49,1.71,1.25,3.1,2.11,4.16,2.59,1.06.48,2.2.52,3.41.12.87,1.39,1.18,2.48.92,3.29-.26.8-1.56,1.59-3.91,2.37-2.65.87-4.55,1.21-5.71,1.02-1.16-.19-2.44-1.04-3.86-2.56-1.42-1.51-5.11-5.23-11.08-11.15l-2.78,6.71c1.21,3.6,2.15,6.31,2.82,8.12l2.8-.92c.51.54.88,1.15,1.1,1.82.2.62.23,1.1.08,1.42-.15.33-.48.57-1,.74l-13.92,4.59c-.58-.68-.99-1.38-1.23-2.11-.16-.48-.14-.88.05-1.19.19-.31.55-.55,1.06-.72l2.48-.82c-.64-2.31-2.55-8.28-5.73-17.92-1.72-5.21-3-8.93-3.86-11.17l-3.55,1.17c-.58-.68-.98-1.37-1.22-2.08-.16-.5-.15-.9.04-1.21.19-.31.55-.55,1.06-.72l13.84-4.56c.52.56.89,1.17,1.1,1.82.21.64.24,1.12.09,1.43-.15.32-.49.56-1,.73l-1.84.61c.68,2.3,2.19,7,4.52,14.09,1.13-2.3,2.48-5.15,4.03-8.54,1.55-3.39,2.9-6.61,4.04-9.67l-2.37.78c-.58-.68-.98-1.37-1.22-2.08-.16-.5-.15-.9.04-1.21.19-.31.55-.55,1.06-.72l11.51-3.82Z" style="stroke-width: 0px;"/>
    <path d="M276.94,118.69c3.1-3.78,7.58-5.91,13.44-6.38,5.52-.45,9.82.5,12.89,2.83,3.07,2.33,4.88,6.9,5.43,13.69.59,7.28-.67,12.81-3.77,16.59-3.1,3.78-7.67,5.92-13.69,6.4-5.37.44-9.59-.51-12.65-2.85-3.06-2.33-4.87-6.9-5.42-13.69-.59-7.28.67-12.8,3.77-16.59ZM285.82,143.7c1.68,1.96,3.87,2.83,6.58,2.61,2.84-.23,4.79-1.41,5.85-3.53s1.41-5.61,1.01-10.46c-.5-6.16-1.58-10.17-3.24-12.05-1.66-1.88-3.86-2.7-6.58-2.48-2.84.23-4.79,1.41-5.86,3.53-1.07,2.12-1.4,5.61-1.01,10.46.48,5.99,1.57,9.96,3.25,11.92Z" style="stroke-width: 0px;"/>
    <path d="M341.18,119.48c-.2-.87-.24-1.67-.11-2.41.09-.52.29-.87.6-1.05.31-.19.74-.23,1.28-.14l12.74,2.12c.2.74.24,1.44.13,2.13-.11.67-.31,1.1-.59,1.31-.28.21-.68.27-1.2.19l-2.13-.35c-.49,2.35-1.44,7.85-2.86,16.52-1.16,7-3.33,11.52-6.51,13.58-3.18,2.05-7.48,2.63-12.91,1.72-4.91-.82-8.15-2.29-9.71-4.42-1.56-2.13-1.93-5.66-1.12-10.59,2.01-12.11,3.17-19.36,3.47-21.74l-2.6-.43c-.18-.86-.21-1.67-.08-2.4.09-.52.28-.87.59-1.06.3-.19.73-.23,1.26-.15l13.24,2.2c.2.74.24,1.44.13,2.13-.11.67-.31,1.1-.59,1.31-.28.21-.68.27-1.2.19l-1.88-.31c-.5,2.42-1.43,7.78-2.81,16.07-.9,5.39-.94,9.02-.13,10.89.81,1.87,2.39,3,4.73,3.39,2.47.41,4.34-.05,5.59-1.38,1.25-1.33,2.25-4.23,3-8.7,1.6-9.6,2.54-15.63,2.84-18.08l-3.16-.52Z" style="stroke-width: 0px;"/>
    <path d="M378.98,126.62c7.77,3.36,12.56,6.89,14.38,10.61,1.82,3.71,1.49,8.43-.98,14.15-2.74,6.34-6.3,10.48-10.68,12.42-4.38,1.94-10.13,1.37-17.26-1.71l-12.61-5.42c.02-.89.18-1.69.48-2.39.2-.46.47-.75.83-.85.35-.1.77-.05,1.27.17l1.88.81c1.06-2.17,3.6-7.91,7.63-17.23,2.18-5.03,3.69-8.67,4.54-10.92l-2.94-1.27c.02-.89.17-1.68.47-2.37.21-.48.49-.77.84-.88.35-.1.77-.05,1.27.17l10.88,4.7ZM375.98,131.5c-1.13,2.37-3.58,7.92-7.36,16.67-1.76,4.07-2.55,6.58-2.37,7.53.18.95,1.32,1.87,3.42,2.78,2.49,1.08,4.74,1.08,6.75.01,2.01-1.07,4.08-4.07,6.22-9,2.1-4.86,2.79-8.58,2.08-11.14-.72-2.56-2.52-4.47-5.4-5.72-1.24-.53-2.35-.91-3.33-1.14Z" style="stroke-width: 0px;"/>
    <path d="M424.59,186.89c.52-.7.86-1.24,1-1.61.14-.37.15-.72.03-1.05-.12-.32-.36-.64-.71-.95.17-.7.46-1.28.87-1.74.49-.54.95-.82,1.39-.83.44,0,.96.26,1.57.79l4.57,4.07c.94.83,1.43,1.55,1.48,2.14.05.59-.35,1.36-1.18,2.29l-3.9,4.38c-1.64,1.84-3.71,4.31-6.21,7.4-.89-.55-1.88-1.3-2.97-2.27-.29-.26-.4-1.23-.31-2.91-3.69-1.03-6.89-2.75-9.58-5.15-4.32-3.85-6.5-7.68-6.53-11.49-.04-3.82,2.04-8.08,6.24-12.79,4.85-5.45,9.72-8.36,14.6-8.73,4.88-.37,9.71,1.58,14.51,5.85,3,2.68,4.88,4.73,5.64,6.17s.63,2.71-.37,3.83c-.96,1.08-2.36,1.77-4.19,2.09-1.49-3.93-3.54-7.07-6.17-9.41-1.94-1.73-4.06-2.37-6.35-1.93-2.29.44-5.14,2.59-8.57,6.43-4.01,4.5-6.2,8-6.57,10.5-.37,2.5.72,4.89,3.28,7.17,1.23,1.1,2.6,2.02,4.12,2.76,2.36-2.66,3.81-4.33,4.33-5.03Z" style="stroke-width: 0px;"/>
    <path d="M473.12,212.42c-4.36.45-12.65,1.48-24.88,3.07-2.66,1.85-4.94,3.5-6.84,4.96l2.6,3.73c-.37.65-.85,1.17-1.43,1.58-.54.37-.98.54-1.34.49-.35-.05-.68-.29-.98-.72l-9.62-13.83c.5-.73,1.06-1.32,1.69-1.75.42-.29.8-.39,1.14-.3.35.09.67.36.99.8l1.8,2.58c2.04-1.26,4.18-2.67,6.43-4.23,6.15-11.58,10.1-19.29,11.84-23.15l-1.36-1.96c.49-.73,1.05-1.31,1.66-1.74.43-.3.82-.4,1.17-.3.35.1.68.37.99.81l7.97,11.46c-.39.66-.87,1.18-1.43,1.58-.55.38-1,.55-1.35.49-.35-.06-.67-.31-.98-.75l-.77-1.11c-1.36,1.88-3.37,4.93-6.04,9.14-2.67,4.21-3.92,6.43-3.77,6.64.15.21,2.51-.25,7.09-1.41,4.58-1.15,8.11-2.17,10.59-3.06l-1.49-2.14c.5-.73,1.05-1.31,1.67-1.74.43-.3.82-.4,1.17-.31s.67.36.99.8l7.04,10.12c-.39.66-.86,1.18-1.43,1.58-.55.38-1,.55-1.35.49-.35-.06-.67-.3-.97-.73l-.77-1.11Z" style="stroke-width: 0px;"/>
    <path d="M489.2,238.56c-3.13,2-6.22,4.07-9.29,6.19-3.06,2.12-6.25,4.26-9.55,6.41-3.3,2.15-4.93,3.29-4.89,3.42s3.8-.15,11.26-.85,13.16-1.33,17.11-1.9l4.86,13.89c-.55.53-1.15.91-1.8,1.14-.64.22-1.11.26-1.43.11-.32-.15-.57-.47-.74-.96l-.71-2.01c-2.99,1.05-7.93,2.96-14.83,5.74-6.9,2.78-11.45,4.66-13.65,5.62l.88,2.52c-.53.52-1.13.9-1.8,1.14-.62.22-1.09.25-1.42.11-.33-.14-.58-.47-.76-.98l-4.23-12.08c.67-.57,1.37-.99,2.09-1.24.48-.17.87-.16,1.18.02.31.18.56.52.73,1.04l.34.98c3.45-1.09,11.68-4.16,24.71-9.21-6.29.67-11.8,1.12-16.54,1.34-4.74.22-7.81.2-9.22-.08-1.4-.27-2.42-1.32-3.06-3.14-.95-2.72-1.38-4.27-1.29-4.63.09-.37,1.97-1.97,5.65-4.8,3.68-2.83,9.23-6.75,16.67-11.75-13.36,4.6-21.73,7.53-25.11,8.81l.71,2.04c-.53.52-1.13.9-1.8,1.14-.62.22-1.09.25-1.42.11-.33-.14-.58-.47-.76-.98l-3.88-11.08c.67-.59,1.36-1.01,2.08-1.26.48-.17.87-.16,1.19.03.31.19.56.54.74,1.05l.6,1.72c2.32-.61,7.05-1.99,14.18-4.11,7.13-2.13,12.18-3.72,15.16-4.78l-1.05-2.99c.67-.57,1.36-.98,2.07-1.23.49-.17.9-.17,1.21.02.31.19.56.54.74,1.05l5.05,14.44Z" style="stroke-width: 0px;"/>
  </g>
  <circle cx="305.13" cy="309.52" r="141.82" style="fill: #fff; stroke-width: 0px;"/>
  <g style="clip-path: url(#clippath);">
    <g>
      <path d="M90.2,313.3v-7.94c0-4.93-1.16-10.26.33-14.69,1.47-4.37.3-8.81,2.24-13.15,1.67-3.73.85-8.5,1.74-12.68,1.19-5.55,2.83-11.01,4.54-16.43,1.57-4.97,3.36-9.88,5.27-14.72,3.76-9.51,7.41-19.07,13.09-27.71,3.01-4.58,5.6-9.43,8.53-14.07,2.02-3.19,4.24-6.26,6.46-9.31,7.78-10.67,16.79-20.24,26.44-29.19,6.53-6.05,13.06-12.25,20.35-17.29,5.39-3.73,10.84-7.54,16.66-10.69,6.52-3.52,13-7.14,19.66-10.37,5.07-2.46,10.34-4.53,15.62-6.52,6.33-2.38,12.67-4.77,19.36-6,1.46-2.22,4.17-.07,5.68-1.54,1.65-1.61,4.05-.06,5.15-1.08,1.91-1.77,3.91-.97,5.87-1.31,2.17-.37,4.31-.93,6.47-1.38,1.95-.41,4.22.93,5.89-1.14.21-.26.85-.28,1.28-.26,11.6.63,23.1-2.96,34.62-1.23,5.48.83,10.9.9,16.35,1.33,2.36.19,4.65,1.94,7.16,1.24,2.94-.81,5.14,1.7,7.88,1.45,2.53-.23,4.82.47,7.2,1.32,2.48.88,5.27.84,7.82,1.56,2.28.64,4.36,2,6.64,2.66,20.01,5.77,25.17,7.71,42.3,16.97,9.94,5.37,19.11,11.89,28.35,18.36,12.05,8.44,21.97,19.11,32.05,29.58,5.1,5.3,9.51,11.41,13.42,17.67,2.9,4.65,7.44,8.32,8.66,14,5.77,6.79,8.83,15.16,12.48,23.03,5.03,10.83,9.25,22.06,11.72,33.94.95,4.57,2.09,9.33,3.71,13.9,1.04,2.94,1.33,6.61,1.53,9.9.6,10.13,2.3,20.2,1.62,30.42-.34,5.14.1,10.34-.12,15.5-.12,2.87-.85,5.73-1.36,8.58-.51,2.85.46,5.63-1.12,8.72-1.38,2.7-.89,6.53-1.48,9.88-1.19,6.76-3.28,13.26-4.85,19.9-.95,4.01-2.63,7.84-3.79,11.8-1.17,3.98-4.02,7.33-4.26,11.63-5.07,7.92-8.47,16.72-13.12,24.9-4.6,8.11-10.56,15.22-15.29,23.2-2.64,4.46-6.73,8.1-10.34,11.94-3.7,3.93-7.54,7.75-11.45,11.47-6.57,6.24-13.44,12.04-21.01,17.16-4.95,3.35-9.75,7.03-14.83,10.25-6.1,3.86-12.3,7.51-18.87,10.56-10.46,4.86-21.22,8.92-32.12,12.63-2.67.91-5.37,2.72-7.99,2.6-3.36-.15-6.27,1.11-9.25,1.82-2.89.69-6.16.28-8.52,1.42-4.49,2.18-9.24.8-13.84,2.29-4.46,1.45-9.8-.07-14.68.43-4.03.42-8.06,2.16-12.09,1.2-7.06-1.69-14.24-.66-21.25-1.57-3.45-.45-7.39-.13-10.43-1.82-3.18-1.77-6.55.16-9.86-1.9-2.79-1.73-7.26-.49-10.47-1.82-5.68-2.37-11.73-3.41-17.4-5.63-5.45-2.13-10.78-4.6-16.17-6.89-3.59-1.53-7.34-2.76-10.78-4.58-9.16-4.82-17.77-10.59-26.31-16.42-5.04-3.44-9.62-7.53-14.44-11.25-6.86-5.3-12.52-11.71-18.68-17.65-8.97-8.66-15.88-18.95-22.88-29.22-4.73-6.94-8.55-14.31-12.52-21.63-5.29-9.77-9.25-20.1-12.79-30.64-2.72-8.1-4.33-16.48-6.78-24.64-1.54-5.12-.38-11.03-1.78-16.22-2.35-8.76-.37-17.53-1.24-24.64ZM98.66,311.61c0,5.87-.51,11.8.15,17.6.63,5.5,1.5,11.02,2.44,16.5,1.21,7,2.79,13.87,4.29,20.79,2.25,10.33,6.34,19.96,10.2,29.63,3.38,8.45,8.19,16.35,12.55,24.39,1.68,3.1,3.62,6.13,5.88,8.82,4.08,4.86,7.3,10.35,11.75,14.97,1.44,1.5,2.58,3.63,4.15,5.24,1.8,1.85,3.41,4.05,5.55,5.37,1.94,1.2,1.3,4.61,4.32,4.53.66,2.94,3.84,3.31,5.46,5.34,1.75,2.19,3.93,4.03,5.92,6.02.83.83,1.57,1.79,2.51,2.47,4.7,3.37,9.67,6.39,14.12,10.06,5.52,4.54,11.67,8.01,17.91,11.28,8.08,4.23,16.11,8.56,24.77,11.64,6.77,2.41,13.45,5.12,20.47,6.69,7.12,1.6,13.95,4.77,21.49,4.28,2.49,2.72,5.91.44,8.53,1.53,3.1,1.29,6.18,1.11,9.33,1.33,5.68.4,11.51-1.28,17.07,1.3.93.43,2.76.43,3.33-.18,1.82-1.91,3.94-.95,5.92-1.14,4.97-.47,9.92-.27,14.97-1.09,6.16-1,12.35-2.13,18.53-2.95,5.34-.71,10.61-1.97,15.57-3.47,10.77-3.26,21.5-6.98,31.53-12.27,8.88-4.68,17.92-9.15,26.38-14.51,6.81-4.32,13.3-9.37,19.17-14.91,10.49-9.9,20.85-19.98,29.98-31.21,1.7-2.09,3.96-4.05,4.76-6.47,1.72-5.22,6.26-8.48,8.34-13.47,1.67-4.01,4.53-7.52,6.84-11.26,2.4-3.9,3.49-8.4,5.88-12.4,1.67-2.8,1.67-6.91,3.72-9.65,2.29-3.05,2.28-6.66,3.36-9.91,2.4-7.26,4.37-14.7,6.04-22.21.81-3.63.16-7.53,1.46-10.63,1.47-3.5.26-6.9,1.26-10.06,1.14-3.57,1.34-7.08,1.32-10.73-.06-8.69-.02-17.38-.02-26.07,0-1.41.59-3.35-.11-4.13-2.07-2.29-.94-4.86-1.31-7.27-.41-2.63-.97-5.24-1.39-7.88-.56-3.54-.62-7.22-1.65-10.6-2.82-9.17-4.68-18.66-8.32-27.55-2.22-5.41-4.04-10.98-6.82-16.21-2.86-5.38-5.45-10.9-8.54-16.19-5.95-10.2-12.97-19.65-20.16-28.96-2.85-3.69-6.53-6.74-9.9-10.01-3.17-3.08-6-6.47-9.25-9.52-6.97-6.56-14.31-12.56-22.29-17.79-7.17-4.7-14.06-9.89-21.91-13.43-5.74-2.58-11.51-5.14-17.22-7.74-8.58-3.9-17.65-6.15-26.37-9.51-3.06-1.18-7.06-.23-9.83-1.73-3.36-1.83-6.95-.83-10.33-2.36-2.85-1.29-6.55-.3-9.94-1.46-2.73-.94-6.11-.59-9.08-.09-3.4.57-6.09-1.65-9.3-1.54-4.31.15-8.55.6-12.84,1.19-6.99.97-14.14.37-21.26,1.38-3.98.56-8.05,1.29-12.01,1.95-1.84.31-3.86.76-5.79,1.21-4.68,1.09-9.35,2.31-13.9,3.84-12.37,4.15-24.6,8.61-36.12,14.86-7.35,3.99-14.7,7.88-21.45,12.92-4.34,3.24-8.4,6.94-12.86,9.83-5.44,3.53-8.68,9.47-14.64,12.17-.25,2.68-3.2,2.65-4.42,4.39-1.42,2.02-2.84,4.06-4.49,5.88-3.38,3.74-6.87,7.35-10.07,11.29-7.45,9.18-13.54,19.21-19.19,29.46-5.65,10.26-10.37,21.05-14.01,32.22-2.58,7.93-4.96,15.91-6.31,24.2-.54,3.34-.35,7.1-1.58,9.87-1.39,3.09-.13,6.05-1.21,8.67-1.18,2.87-1.3,5.69-1.3,8.62,0,4.93,0,9.86,0,14.8Z" style="stroke-width: 0px;"/>
      <path d="M307.76,167.72c3.29,0,6.57-.05,9.86.01,3,.06,6.58-.75,8.86.6,2.77,1.64,6.28-.94,8.29,2.21,9.01.2,16.95,4.24,25.33,6.8,4.71,1.44,8.67,4.07,13.1,5.84,4.33,1.73,8.03,4.44,11.98,6.78,13.44,7.97,23.87,19.37,34.49,30.48,3.95,4.13,6.87,9.28,10.02,14.11,2.99,4.59,5.99,9.22,8.41,14.12,2.1,4.26,2.91,9.19,5.21,13.31,2.4,4.32,1.74,9.56,4.84,13.51-.54,3.25.85,6.19,1.43,9.26.84,4.46.72,9.18,1.72,13.43,1.42,6.01.88,11.88,1.03,17.8.08,3.09.44,6.14-1.09,9.39-1.18,2.49.91,6.77-.51,8.86-2,2.95.61,6.69-2.49,8.9.41,6.9-2.87,12.88-5.1,19.02-2.59,7.12-5.87,14.03-9.4,20.74-4.79,9.12-10.51,17.66-17.85,25.01-2.99,2.99-6.21,5.78-8.9,9.02-2.56,3.08-6.58,4.61-8.45,8.32-11.61,7.01-21.97,15.96-35.26,20.35-7.22,2.38-14.14,5.57-21.69,7.15-4.33.91-8.7,1.66-13,2.62-10.59,2.36-21.24.84-31.84,1.18-2.83.09-5.7.89-8.7-1.12-2.2-1.48-5.95,1.09-8.44-1.6-7.68-.07-14.52-3.24-21.63-5.57-10.02-3.28-19.46-7.74-28.15-13.58-4.06-2.73-8.02-5.9-12.06-8.54-4.24-2.77-6.46-7.85-11.58-9.26.08-3.75-4.27-3.73-5.62-6.7-1.27-2.8-5.16-4.39-6.54-7.18-1.43-2.88-4.84-4.26-5.18-7.7-5.53-5.36-8.84-12.2-11.85-19.04-4.38-9.95-8.98-19.82-10.82-30.76-.92-5.48-1.73-11.04-2.94-16.4-1.72-7.65-.69-15.17-1.1-22.72-.37-6.8,1.56-13.34,2.54-19.99,1.37-9.26,3.77-18.05,7.29-26.62-.7-3.5,3.07-5.12,3.43-8.52.32-3.03,2.64-5.89,4.26-8.72,1.53-2.67,3.4-5.15,4.93-7.83,3.94-6.91,9.11-12.8,14.27-18.82,3.72-4.33,7.57-8.21,11.97-11.81,4.19-3.43,8.6-6.59,12.74-10.01,8.29-6.86,17.84-11.33,27.42-15.59,6.5-2.89,13.41-5.05,20.46-6.8,5.75-1.43,11.63-2.3,17.39-3.74,4.42-1.11,9.33-.22,14.03-.22h4.93ZM258.39,277.03c1.23-4.24,3.33-7.59,1.93-12.09-1.23.06-2.51.13-4.15.21.75,4.01,1.4,7.51,1.75,11.72v-.63c-.37.13-.77.2-1.07.43-.09.07.15.56.23.85.28-.22.56-.43,1.31-.49ZM282.33,258.22c5.42-1.32,10.1.33,14.48,2.72,5.39,2.94,11.88,3.05,16.92,6.8.3.22.92.06,1.39.02,6.41-.54,12.35,2.05,18.55,2.91,2.34.33,4.45,2.22,7.04.98,1.58-3.56-1.23-5.81-3.38-6.47-3.41-1.04-3.35-3.91-4.65-6-1.01-1.63-1.18-3.77-2.17-5.42-2.51-4.16-5.24-8.18-7.93-12.22-2.58-3.88-2.41-6.93.67-10.21.48-.51,1.04-.96,1.48-1.5,2.12-2.63,5.48-2.78,8.3-3.77,1.24-.43,3.31,1.37,4.94,2.26,4.58,2.49,4.9,3.79,4.58,9.78-.28,5.38-.84,10.92,2.68,15.78.85,1.17,1.48,2.9,1.36,4.3-.23,2.68.95,4.33,2.75,5.98.94.86,1.48,2.15,2.37,3.49h5.45c4.53-7.16,4.65-15.28,6.25-23.43-6.46-2.99-12.3-7.44-17.44-12.96-3.25-3.5-7.14-6.42-10.82-9.51-1.35-1.13-3.15-1.8-4.33-3.06-1.9-2.04-4.16-3.35-6.63-4.49-2.71-1.25-5.36-2.64-7.75-3.83-1.68.73-3.24,2.06-4.67,1.94-6.94-.61-10.44-8.02-7.46-14.49,1.55-3.36,3.99-5.38,7.11-6.74,1.39-.6,3.3-1.19,4.55-.69,4.03,1.6,7.89,3.64,11.75,5.65,1.27.66,2.79,1.52,3.36,2.69,1.16,2.4,2.94,3.92,4.84,5.7,3.84,3.6,7.62,7.3,11.01,11.47,2.29,2.82,5.88,6.05,11.21,5.19-1.3-6.09,1.51-10.58,6.08-13.51,2.21-1.42,4.68-3.26,7.79-3.28,1.45-.01,3.15-1.6,4.3-1.2,4.35,1.5,9.36,2.45,10.44,8.22.24,1.3.75,2.59.77,3.89.09,4.7.2,9.4,0,14.09-.22,5.01.39,9.55,4.67,12.91.59.47.64,1.59,1.04,2.35,3.75,7.02,5.65,13.65,5.59,20.23-.04,4.18.44,8.51-.5,12.5-1.39,5.89-4.1,11.46-5.72,17.32-1,3.6-4.15,6.58-3.55,10.48.93,6.06-1.79,11.12-4.68,15.69-4.58,7.24-8.33,14.88-12.26,22.44-3.71,7.13-7.01,14.47-10.49,21.72-.28.59-.73,1.16-.81,1.77-.52,4.03-.77,8.1-1.5,12.08-.69,3.74-.63,7.77-1.85,11.21-4.27,12.07-7.62,24.5-13.26,36.07-.66,1.36-1.6,2.95-1.4,4.28.52,3.39,1.43,6.75,2.54,10.01.75,2.22,5.73,3.98,8.09,3.23,6.72-2.13,21.34-9.17,27.05-12.94,2.38-1.57,5.05-2.77,7.26-4.54,6.03-4.85,12.03-9.75,17.74-14.97,3.01-2.75,5.22-6.34,8.06-9.28,6.42-6.65,11.25-14.37,15.38-22.53,10.24-20.24,7.7-14.04,13.6-35.93,2.69-2.49.13-6.25,1.6-8.45,2.01-2.99.71-5.85,1.21-8.71.5-2.85,1.04-5.7,1.4-8.58,1.09-8.81-1.4-17.42-1.55-26.18-.05-2.98-.84-6.2-1.68-9.12-1.63-5.64-2.7-11.46-5.17-16.87-1.62-3.55-2.92-7.25-4.25-10.92-1.34-3.69-4.44-6.57-4.89-10.66-6.62-9.88-13.44-19.63-21.46-28.43-5.07-5.57-11.14-10.03-17.19-14.54-12.3-9.17-13.52-9.68-31.98-18.07-11.46-5.21-23.54-7.07-35.57-9.29-5.9-1.09-12.18-.36-18.28-.14-5.92.21-11.93-1.05-17.77,1.28-2.21.88-4.73-.35-7.28,1.23-2.03,1.25-5.13.93-7.76,1.46-13.05,2.65-24.74,8.6-36.12,14.89-7.96,4.4-15.16,10.37-22.1,16.33-7.66,6.58-14.31,14.25-19.99,22.66-2.46,3.64-4.5,7.58-7.03,11.16-4.86,6.87-7.79,14.59-10.5,22.43-2.6,7.5-5.93,14.82-5.63,23.03-2.68,3.02-.1,7.09-1.61,9.88-1.87,3.47-.97,6.76-1.14,10.1-.27,5.39-1.29,11.18.26,16.1,1.6,5.08.18,10.22,2.22,15.25,1.42,3.5,1.87,7.62,2.97,11.44,1.1,3.81,3.19,7.32,4.09,10.96,2,8.06,5.96,14.99,10.12,21.91,6.44,10.71,14.18,20.41,23.06,29.18,2.08,2.05,4.57,3.68,6.85,5.52,2.47,1.98,4.83,4.13,7.41,5.95,5.03,3.54,10.18,6.89,15.29,10.32-1.21-2.74,3.09-3.93,1.17-6.94-1.28-2.01.68-5.95-.46-8.19-2.71-5.34-1.51-11.43-4.01-16.67-.35-10.45-.53-20.86,4.73-30.45.51-.93,1.18-2.69.81-3.05-2.66-2.52-.56-6.06-2.3-9.01-1.58-2.68-1.04-6.54-1.92-9.75-.74-2.69-1.61-5.72-3.43-7.65-2.21-2.35-2.71-5.16-3.42-7.8-1.71-6.35-2.82-12.76-6.74-18.4-1.5-2.17-1.27-5.54-1.83-8.36,3.85-6.46-.06-12.73-.57-19.06-.3-3.71-1.57-7.33-2.23-11.02-.95-5.32,1.25-9.86,4.22-14.19-4.97-1.04-7.23-3.83-5.49-6.75.88-1.46,2.61-2.52,4.14-3.46,2.39-1.46,4.63-2.5,6.27-5.35,2.44-4.24,6.73-6.69,12.17-6,2.06.26,4.18.04,6.14.04,1.47,1.47,2.79,2.79,4.48,4.48,2.92-4.93,8.34-7.3,11.59-11.97.81-1.17,2.5-1.76,3.83-2.53,8.33-4.81,17.52-7.58,26.39-11.13,1.81-.73,3.92-1.17,5.31-2.4,4.16-3.68,8.74-5.55,14.32-4.65.66.11,1.34.11,1.88.15.79.79,1.54,1.39,2.1,2.13,2.79,3.63,3.82,7.56,1.86,11.93-2.99,6.69-8.6,8.78-15.42,5.48-3.51-1.7-6.72-1.78-10.06.23-.92.55-2.1,1.32-3,1.14-5.71-1.11-10.49,1.81-15.55,3.4-4.05,1.27-4,1.43-6.82,5.35-2.51,3.49-5.05,6.97-7.58,10.45.44.42.88.84,1.32,1.25,2.02-2.76,3.87-5.7,6.53-7.64,7.28-.86,11.5,2.66,13.8,10.12ZM345.27,446.04c-3.36-.99-5.32-1.37-7.11-2.13-2.4-1.02-4.82-2.11-6.96-3.57-3.53-2.42-3.69-4.85-1.14-8.67,1.21-1.82,2.32-3.61,2.65-5.97.35-2.54,1.73-4.93,2.29-7.46.58-2.63.75-5.35,1.04-8.03.3-2.71.87-5.44.73-8.12-.35-6.66,1.62-12.76,3.71-18.92,1.14-3.35,2.17-6.71,2.12-10.45-.05-4.24.17-8.76,1.58-12.68,1.87-5.2,3.55-10.27,4.56-15.77.9-4.89.32-9.63.72-14.42.05-.54-.56-1.16-.91-1.71-1.18-1.84-2.39-3.66-3.21-4.91,1.08-4.3,5.47-6.48,3.86-11.45.06.05-.3-.25-.64-.57-2.8-2.6-4.9-6.43-9.71-5.48-1.58-1.9-5.38-1.64-5-5.64.11-1.12-1.64-2.77-2.92-3.59-4.24-2.7-8.65-5.13-13.32-7.85-2.4,7.02-2.13,14.28-3.26,21.29-.74,4.55,1.99,8.82,1.52,13.51-.17,1.67,1.14,3.85,2.39,5.23,3.32,3.68,6.76,7.15,12.05,8.28,2.81.6,5.36,2.45,8.72,4.07-1.57,1.15-2.73,2-3.89,2.85-1.72-2.39-3.97-.35-5.08.19-4.3,2.07-8.24,1.32-12.31-.19-4.93-1.84-9.68-4.21-15.15-4.37-.82-.02-2.01-1.81-2.28-2.96-.28-1.19.48-2.6.54-3.92.22-4.56,1.05-9.24.27-13.64-.64-3.63-1.32-7.35-2.31-10.96-1.09-4-1.97-8.05-2.95-12.11-6.6,3.46-12.74,6.7-18.9,9.9-3.27,1.7-4.74,3.04-6.34,6.4-.75,1.56-1.27,3.23-1.91,4.88-1.29,0-2.45-.02-3.62,0-4.36.07-7.14,1.63-6.98,5.44.2,4.69-1.72,8.95-1.62,13.51.12,5.47.28,10.87,1.23,16.35,1.56,9.07-.96,18.1-2.88,26.92-.58,2.67-1.06,5.25-1.13,7.92-.11,3.99-.03,7.98-.03,11.97-3.25,2.74.52,7.39-2.76,10.13-.02,3.75.25,7.53-.14,11.24-.44,4.17,1.74,7.36,3.63,10.49,1.61,2.67,4.39,4.5,7.94,4.51.44,0,.88,1.4,2.18,3.62-3.78-1.67-6.11-.17-8.69-1.96-1.81-1.26-4.84-.98-6.1,1.75,30.41,13.21,61.7,15.83,95.52,7.04ZM272.46,270.16c-.77,3.31-1.38,5.95-2.04,8.85,5.57.28,8.58-3.57,13.77-5.01-4.61-1.51-8.06-2.64-11.72-3.83Z" style="stroke-width: 0px;"/>
      <path d="M477.14,269.35c-6.6-1.29-12.18-2.37-18.24-3.55,3.34-5.84,9.3-8.34,13.98-13.75-3.53.68-6.04,1.54-8.55,1.55-3.94.02-2.77,4.51-5.56,5.35-4.16-3.83-5.04-6.29-4.61-13.59.62,0,1.54-.27,1.85.04,2.23,2.31,4.73,1.57,7.51,1.39,4.75-.31,8.97-2.39,13.57-3.17,3.32-.56,5.03-4.01,6.79-6.82,5.4,2.95,6.91,7.65,6.5,15.05-3.04,2.91-7.04,6.75-11.48,11.01,3.21.72,6.31,1.42,9.41,2.1,2.15.48,4.31.93,6.45,1.42.41.1,1.07.27,1.14.54.99,3.58,3.39,6.79,3,10.72-.19,1.88-2.33,3.33-3.82,2.36-2.64-1.72-5.71-1.48-8.01-.75-4.35,1.39-8.85,2.33-13.11,4.01-2.41.95-3.13,1.6-5.46,5.9-4.22-1.75-4.69-5.97-6.19-9.43-.43-.99-.07-2.38-.61-3.25-.67-1.07-1.43-1.94-.23-2.92.83-.68,1.85-1.27,2.87-1.51,1.11-.26,2.34-.13,3.51-.05,2.99.21,5.85-.07,9.3-2.67Z" style="stroke-width: 0px;"/>
      <path d="M155.58,255.25c-.7-1.5-1.47-2.38-1.44-3.22.15-4.25-3.33-5.54-5.99-7.22-3.86-2.44-7.9-4.69-12.12-6.38-1.5-.6-3.76.68-5.71,1.1-2.31-2.61-1.31-5.57-.11-8.1,1.71-3.61,3.07-7.62,7.5-9.75,3.58,1.23,2.79,8.04,9.19,7.15.75-1.02,2.21-3.01,3.32-4.52-1.27-1.42-2.41-2.7-4.01-4.5h-6.03c-1.13-2.61-1.27-4.71-.6-6.35,1.74-4.25,4.12-7.98,8.5-10.8.85.8,2.68,1.8,2.59,2.55-.49,3.79,2.39,4.56,4.69,5.73,3.53,1.78,7.13,3.28,10.33,5.82,1.35,1.07,3.85,3.39,6.67.79,1.36-1.26,4.49,1.21,3.77,2.92-1.61,3.79-3.19,7.69-5.47,11.08-2.52,3.75-4.4,3.27-7.21-.45-1.68-2.22-3.96-3.97-6.14-6.1-.98,1.4-1.77,2.25-2.22,3.26-.77,1.73-2.77,3.55-.85,5.46,1.89,1.89,4.22,3.4,7.16,3.02,3.1-.4,3.22-.31,3.55,2.07.62,4.41-1.95,7.65-4.02,11-.95,1.54-2.56,2.66-5.32,5.42Z" style="stroke-width: 0px;"/>
      <path d="M249.78,152.24c-.9,4.86,3.85,5.52,5.99,8.65-2.07,1.47-3.65,3.29-5.57,3.8-2.97.79-5.81,1.63-8.67,2.87-3.17,1.37-5.11-1.85-4.78-4,.82-5.46.7-5.86-1.37-12.3-.07-.21.04-.48-.02-.7-1.47-5.27-2.14-11.05-8.66-12.6.42-2.7,1.71-3.42,3.57-4.2,2.19-.92,4.55-1.8,6.49-2.91,4.17-2.37,6.19-.45,8.36,2.43-2.11,1.88-1.28,4.06-1,6.41,4.43-2.26,4.95-2.92,3.48-6.78-.52-1.36-1.33-2.07-.12-3.49.91-1.06,1.13-2.36,2.91-2.97,3.13-1.08,6.08-2.85,9.51-2.34,1.37.2,2.62,1.24,4.56,2.22-1.45,1.49-2.22,2.98-3.27,3.22-2.31.53-3.5,2.26-4.59,3.85-.93,1.36-1.5,3.33-1.37,4.96.12,1.52,2.01,1.94,3.35,2.76,5.03,3.08,9.38,7.25,15.53,8.43,1.33.25,2.34,2.19,3.47,3.31-2.68,4.06-7.6,4.17-11.39,6.28-1.07.6-2.94.43-4.47-.86-2.69-2.26-5.72-4.16-8.75-5.96-.82-.49-2.18-.07-3.19-.07Z" style="stroke-width: 0px;"/>
      <path d="M356.59,156.6c1.12-.05,2.68.33,3.22-.24,1.32-1.42,5.01-.96,3.81-4.47,2.35-4.42,4.87-8.76,6.96-13.3.78-1.7,2.67-3.79.15-5.9-.44-.37-.06-1.72-.06-2.92,1.88,0,3.66-.49,4.99.08,5.96,2.6,12.06,5.05,17.62,8.38,8.28,4.96,11,12.13,6.62,22.09-.18.4-.87.63-.94,1.01-.84,4.64-3.94,7.46-7.96,9.15-5.66,2.39-8.34,2.04-15.18-1.16-3.74-1.75-7.39-3.68-11.12-5.43-1.56-.73-3.24-1.23-4.88-1.8q-2.7-.94-3.21-5.48ZM373.37,160.76q2.59,2.7,7.81,2.73c6.61-6.51,7.82-9.48,7.79-19.25-1.31-1.05-2.71-2.19-4.14-3.29-.15-.11-.45-.02-1.34-.02-3.29,6.44-6.72,13.15-10.12,19.82Z" style="stroke-width: 0px;"/>
      <path d="M294.91,118.39c10.59-.71,15.4,5.54,18.78,13.12,1.33,2.99.79,7.36-.24,10.69-.94,3.05-2.03,6.54-6.09,8.07-2.33.88-4.81,2.21-6.94,3.54-4.91,3.06-9.26.04-13.67-.49-3.57-.43-5.94-4.08-8.34-6.8-.93-1.06-1.07-2.81-1.56-4.25-1.7-4.99-1.36-10.5,1.07-14.48,3.25-5.33,8.19-9.94,15.58-9.4.47.03.94,0,1.41,0ZM292.8,125.51c-3.81,2.02-4.41,5.1-3.85,8.49.72,4.4,3.12,8.14,5.64,11.63.7.97,3.41.98,5.01.62.86-.19,1.57-2.02,1.96-3.24,1.52-4.79-2.27-8.43-3.17-12.73-.39-1.86-3.56-3.13-5.6-4.77Z" style="stroke-width: 0px;"/>
      <path d="M175.77,211.73c-2.23-.36-4.93-.04-6.59-1.21-3.39-2.39-7.39-4.2-9.06-8.7-1.76-4.74-2.61-9.81-.58-13.84,1.79-3.56,3.56-7.2,6.84-9.89,2.56-2.1,5.08-3.52,8.5-3.37,4.72.2,9.22-.08,13.74,2.66,4.34,2.64,6.2,6.53,7.1,10.63,1.4,6.39-.66,12.52-4.73,17.61-2.87,3.59-6.97,5.46-11.65,5.76-1.17.08-2.35.01-3.52.01-.02.11-.03.22-.05.33ZM182.7,200.31c2.25.35,4.12-.7,4.59-2.43.5-1.8.65-3.96-1.33-5.7-2.56-2.25-5.9-2.93-8.52-4.83-1.9-1.38-3.79-1.37-5.79-1.3-3.56.14-5.68,4.13-3.31,6.8,3.78,4.24,9.05,6.03,14.36,7.45Z" style="stroke-width: 0px;"/>
      <path d="M429.95,196.76c-.52-2.38-1.07-4.85-1.63-7.41,3.26-1.19,5.19.11,7.68,1.8,3.08,2.09,4.88,5.02,7.23,7.58,1.26,1.37,1.21,2.89-.05,4.29-.94,1.04-1.69,1.75-3.47.85-1.17-.59-3.29-.13-4.6.58-3.03,1.63-5.83,2.43-8.73-.05-7.75-.99-10.84-6.7-13.44-13.05-5.25-12.84,7.46-24.81,18.58-23.56,6.32.71,11.63,3.91,15.02,9.18,1.12,1.74,2.4,3.24,3.71,4.73,2.78,3.16,2.92,3.12.74,6.95-.77,1.35-1.69,2.71-2.85,3.72-2.04,1.77-5.3.38-5.54-2.35-.25-2.9.28-5.84-1.42-8.58-3.3-5.31-8.74-5.46-12.81-.27-.86,1.1-2.22,1.86-2.91,3.03-1.08,1.86-2.31,3.9-2.48,5.94-.14,1.79.87,3.81,1.78,5.5.99,1.82,2.78,2.24,5.19,1.12Z" style="stroke-width: 0px;"/>
      <path d="M321.34,148.66c0-2.8-.13-5.63.04-8.43.15-2.42.08-4.73,1.04-7.29.95-2.55,1.2-6.18-.63-9.35-1.35-2.35.15-5.08,2.44-5.15,6.13-.19,11.93,1,16.85,4.59.2,4.26-4.35,3.26-5.5,5.87-.64,5.52-1.3,11.15-1.94,16.67,1.51,1.36,2.72,2.46,4.15,3.75h6.73c4.38-2.69,4.11-7.51,4.99-11.8.44-2.14.63-4.34.91-6.3-1.24-1.23-2.7-2.68-3.45-3.42,0-2.64,3.56-5.52,4.97-5.14,2.94.78,5.85,1.72,8.69,2.81,1.84.71,2.29,3.87.92,3.98-4.47.33-2.56,4.91-4.88,6.48.83,3.51-1.66,6.53-1.49,9.95.17,3.46-1.36,6.46-4.05,8.1-4.44,2.71-8.83,4.68-14.86,2.99-5.89-1.65-10.88-3.8-14.92-8.29Z" style="stroke-width: 0px;"/>
      <path d="M202.98,183.22c-3.6-4.71-7.86-9.49-11.09-14.89-1.38-2.31-2.34-3.43-4.94-3.55-.87-.04-1.68-1.39-2.76-2.36,2.98-4.74,7.45-7.33,12-9.63,1.38-.7,3.45-.24,5.15.06.45.08,1.97.68.83,2.46-1.4,2.19-.41,4.31,1.15,6.76,2.57,4.03,4.96,8.06,8.94,11.23,2.03.33,4.02-.33,6.19-1.22,2.28-.94,2.56-2.92,3.65-4.49,1.55-2.25.07-3.64-1.27-5.35-1.9-2.41-3.39-5.14-5.04-7.75-1.92-3.05-4.26-5.45-8.75-5.18.28-1.54.1-3.48.81-3.9,3.68-2.18,6.44-6.38,12.14-5.74-1.2,5.71,1.51,9.87,4.75,14.15,2.3,3.04,4.03,6.86,4.86,10.6,1.76,7.96-3.48,12.43-9.52,15.96-3.26,1.91-6.71,3.53-10.79,2.92-1.84-.28-3.75-.05-6.3-.05Z" style="stroke-width: 0px;"/>
      <path d="M130.45,270.58c5.92-.02,12.22,1.22,16.18-5.45-.9-3.19,1.37-7.06-1.12-10.49-.13-.18.45-1.25.87-1.4,1.22-.43,2.91-1.24,3.72-.75,1.75,1.07,3.07,2.86,4.93,4.72,0,2.63-.09,5.64.01,8.64.44,13.19-11.1,20.44-22.58,18.69-6.3-.96-9.87-6.25-12.44-11.69-2.54-5.37-1.33-12.89,2.23-18.15.73-1.07,1.27-2.29,1.74-3.5,1.41-3.64,4.68-5.14,8.49-3.86.83.28,1.67.52,2.53.69,2.11.41,2.95,1.6,3.17,3.78.22,2.21-.69,3.61-2.31,4.64-1.08.69-2.39,1.02-3.62,1.44-6.56,2.24-7.64,6.67-2.82,11.77.31.33.68.62,1,.91Z" style="stroke-width: 0px;"/>
      <path d="M481.43,232.07c-1.56-1.27-2.37-2.01-3.26-2.63-2.01-1.4-4.04-2.67-6.7-2.59-1.26.04-2.54-.61-3.82-.91-2.68-.63-5.25-1.12-7.72.93-2.88,2.39-7.69,2.56-7.87,7.98-.06,1.94-3.58,2.71-5.12,1.32-3.2-2.88-5.09-6.74-7.17-10.41-1.2-2.11-2.32-4.42-1-7.14.58-.05,1.46-.42,1.87-.13,3.93,2.84,6.95.15,10.28-1.41,3.43-1.6,4.82-4.5,5.68-7.78,1.12-4.25,3.72-8.17,2.61-13.47,1.7.2,3.39-.12,4.13.57,4.09,3.86,6.71,8.76,8.74,13.95.39.99.06,2.26.06,3.35q-4.95,1.11-5.64,5.33,3.26.67,5.64-1.29c1.45-1.18,3.01-1.28,4.29.1,3.37,3.65,6.81,7.34,5,14.21Z" style="stroke-width: 0px;"/>
      <path d="M146.74,350.31c-3.04.92-5.76,1.74-8.65,2.61.95,2.88,1.93,5.73,2.84,8.6,1.2,3.77,1.86,4.05,5.84,2.63,1.04-.37,2.18-.47,3.78-.8.1,1.96.19,3.69.29,5.53-7.3.61-13.57,4.7-20.99,4.68v-3.79c2.62-.79,5.34-1.6,8.45-2.54-1.12-4.41-2.24-8.83-3.46-13.62-2.72.96-5.33,1.88-8.27,2.92-2.36-.78-3.1-2.59-2.29-5.06,6.43-1.73,12.77-3.44,19.93-5.37-1.15-.51-1.75-.77-3-1.32-.12-2.13-.28-4.81-.46-7.94-5-.28-9.74,1.64-14.71,1.69-4.24.04-4.23.77-4.78-4.14,5.82-.72,11.64-1.44,17.58-2.18q.86-4.41-.45-7.89h3.61c2.64,8.41,2.11,17.48,4.75,25.97Z" style="stroke-width: 0px;"/>
      <path d="M167.31,399.93c3.25,4.41,6.57,8.66,9.59,13.11,2.12,3.14.32,6.98-4.01,8.24-1.52.44-1.9.81-2.57,2.26-2.29,4.97-2.5,4.87-9.64,4.86-3.59-4.7-7.43-9.72-11.56-15.13,5.95-4.37,11.9-8.73,18.2-13.35ZM160.19,411.42c-2.13,1.45-3.64,2.48-5.23,3.57,3.46,3.13,4.42,8.04,9.14,9.41.83-1.67,1.59-3.2,2.32-4.65-2.13-2.84-4.13-5.53-6.23-8.33ZM173.3,415.21c-1.74-2.77-3.34-5.33-4.95-7.9-2.59-.34-4.37.53-4.96,3.42,1.29,1.29,2.71,2.48,3.85,3.9,2.49,3.1,2.43,3.17,6.07.59Z" style="stroke-width: 0px;"/>
      <path d="M413.9,465.47c-2.31-3.03-5.19-5.1-7.19-8.36-1.57-2.56-3.3-5.67-6.89-7.31.93-1.1,1.59-2.46,2.67-3.05,4.17-2.31,6.73-6.7,11.24-8.52.97-.39,2.14-1.31,2.86-1.04,1.28.48,2.49,1.53,3.34,2.64.76.99,1.29,2.35,1.4,3.6.13,1.49.62,1.83,2.06,2,2.7.31,4.62,1.94,5.02,4.69.45,3.15-.93,5.85-3.34,7.71-3.33,2.57-6.94,4.78-11.16,7.65ZM415.88,460.53c2.3-4.13,7.22-4.15,8.39-8.4-3.07-2.94-2.96-2.63-6.09-1.56-3.02,1.04-4.41,3.58-6.43,5.12,1.24,1.45,2.29,2.68,4.14,4.84ZM417.04,442.19c-4.82,1.03-8.17,3.43-10.22,5.72.94,1.86,1.66,3.28,2.34,4.62,3.75-2.81,8.53-4.06,7.88-10.34Z" style="stroke-width: 0px;"/>
      <path d="M169.02,434c.3-.93.42-3.23,1.62-4.57,2.21-2.5,4.8-4.97,7.74-6.4,1.63-.79,4.25-.71,6.59.64,4.07,2.35,7.07,5.48,9.57,9.35,1.33,2.06,2.21,4.28.94,6.28-1.96,3.09-2.52,7.23-6.55,8.9-10.92,4.55-19.08-5.5-19.91-14.2ZM186.73,428.45c-1.82,0-3.71-.12-5.57.03-3.81.3-6.62,2.97-7.23,7.24-.22,1.52.19,3.45,1.02,4.72.77,1.18,2.52,1.68,3.78,2.57,3.36,2.39,6.51.66,9.51-.66,2.66-1.16,1.98-3.88,2.01-6.15.02-1.41,0-2.82,0-4.23-1.16-1.16-2.33-2.32-3.53-3.52Z" style="stroke-width: 0px;"/>
      <path d="M491.72,353.97c-2.23,1.29-3.58,2.73-4.44,2.48-6.31-1.83-13.18-1.32-19.25-4.63v-4.36c6.1-3.36,11.99-6.6,18.36-10.11-3.62-.51-6.56-2.24-10.18-2.04-1.82.1-3.71-1.09-5.46-1.66v-3.52c7.68-1.65,14.57,3.84,22.08,2.37,1.39,4.43-.29,6.89-3.85,8.59-3.71,1.77-7.35,3.71-10.99,5.63-1.07.56-2.02,1.33-3.87,2.56,5.31-.06,9.17,2.41,13.62,1.78.89-.13,2.01,1.41,3.99,2.91Z" style="stroke-width: 0px;"/>
      <path d="M278.65,497.84c-4.04-1.53-6.24-2.89-7.28-6.94-1.09-4.26-4.52-7.91-7.12-12.14-1.32,4.35-1.83,8.46-3.23,12.41-1.01,2.85-2.36,1.98-4.68,1.96.98-7.71,3.29-14.98,4.83-22.63,3.05.84,5.78.38,6.89,4.81,1.24,4.92,4.63,9.29,7.61,14.9,1.43-5.69,2.59-10.3,3.79-15.09h3.85c-.12,7.79-2.34,15.07-4.65,22.72Z" style="stroke-width: 0px;"/>
      <path d="M422.72,437.52c.74-2.66-1.34-5.89,1.48-8.34.24-5.91,4.7-7.9,9.28-8.95,1.49-.34,2.46-3.38,4.79-1.14,1.15,1.11,3.11,1.91,4.71,1.92,2.66.02,2.04,2.57,3.37,3.49,3.18,2.21,1.76,5.53,1.74,8.33-.02,5.19-7.75,12.33-12.33,12.54-3.04.14-5.77-.44-7.96-2.76-1.6-1.69-3.29-3.31-5.08-5.1ZM435.26,441.38c3.46-1.96,7.61-2.85,8.56-6.72,1.09-4.4-1.67-7.69-4.88-10.44h-7.19c-1.06,1.33-2.37,2.64-3.27,4.18-2.35,3.99-2.15,5.89,1.06,8.83,1.76,1.61,3.87,2.84,5.71,4.15Z" style="stroke-width: 0px;"/>
      <path d="M213.52,465.08c1.27,1.79,3.37,2.66,3.71,5.48.33,2.76,2.6,4.72,5.93,4.41,1.12-.1,2.25-.02,4.17-.02-.69-1.46-.94-2.49-1.57-3.2-1.55-1.75-3.35-3.27-4.91-5.01-1.79-2-3.44-4.13-5.13-6.18.3-.52.53-.83.67-1.17.92-2.36,2.34-5.41,4.58-5.33,3.33.12,6.74,1.62,9.84,3.12,1.79.86,3.03,2.87,4.33,4.16v6.51c-1.77-1.31-4.94-.94-4-4.32-2.26-2-4.52-4-7.02-6.22-1.53,1.24-2.54,2.05-4.04,3.25,4.77,4.04,8.72,7.38,12.43,10.52.07,2.74.1,4.79-1.9,6.72-1.89,1.83-3.82,1.27-5.81,1.36-5.22.24-9.2-1.82-12.03-6.31-1.91-3.03-1.95-4.22.74-7.78Z" style="stroke-width: 0px;"/>
      <path d="M469.85,401.62h-6.22c.99-1.61,1.83-4.01,2.55-3.98,2.9.14,3.96-2.07,5.72-3.44,1.45-1.13,1.71-2.54,1.69-4.26-.03-2.23-1.09-3.36-3.14-3.8-2.89,3.7-5.76,7.36-8.86,11.32-.65,0-1.55.02-2.45,0-4.88-.14-7.47-2.63-6.64-7.29,1-5.66,3.7-10.42,9.64-12.42.42-.14.94-.07,1.4,0,.42.06.83.25,1.25.39.81,2.59.2,4.3-2.61,5.28-5.32,1.85-5.36,2.07-5.52,7.93,3.7,1.64,5.52-.97,6.95-3.49,1.63-2.88,3.61-5.1,6.75-6.24.81-.3,1.79-1.19,2.34-.96,1.33.55,2.88,1.34,3.58,2.5,1.67,2.74,2.28,5.61.7,8.9-1.69,3.51-3.49,6.79-7.13,9.59Z" style="stroke-width: 0px;"/>
      <path d="M232.47,483.91c2.5-6.62,5.02-13.3,7.63-20.24,6.66-.24,11.61,4.57,17.66,5.8v3.91c-4.58-1.67-8.95-3.26-13.49-4.92-.5,1-1.25,2.49-1.97,3.93,3.66,3.73,9.76,3,13.42,7.51-6.02,2.32-10.2-3.3-15.47-1.99-.52,1-1.11,2.15-1.86,3.61,3.89,3.57,10.46,3.04,14.42,7.35-1.65,2.14-3.01,1.73-4.56,1.12-5.2-2.07-10.45-4.03-15.78-6.08Z" style="stroke-width: 0px;"/>
      <path d="M378.38,459.62h5.81c.91,1.89,1.83,3.78,3.05,6.32,2.86-3.1,3.32-6.6,4.5-9.65,1.58-4.06,2.18-4.76,6.76-5.14-1.32,3.37-2.62,6.66-3.96,10.08,3.25,5.25,10.79,3.15,14.79,8.22-1.62,1.04-2.78,2.31-4.07,2.47-1.36.16-3.22-.35-4.18-1.27-1.38-1.32-3.24-.74-4.29-1.51-1.49-1.07-2.96-1.74-4.33-.98-.95.52-1.26,2.2-1.91,3.47,1.09,1.63,2.32,3.48,3.58,5.37-2.89,2.91-4.82,3.09-6.47.13-3.05-5.49-5.9-11.09-9.29-17.5Z" style="stroke-width: 0px;"/>
      <path d="M478.36,358.69c-1.53,5.49-2.69,9.69-3.86,13.88,1.96.98,3.5,1.74,5.27,2.62.33-.76.8-1.32.79-1.87-.06-3.9,1.76-7.24,3.22-10.64.42-.97,1.98-1.45,4.05-2.85-1.21,8.08-4.03,14.35-6.34,20.97-7.04-2.57-13.76-5.02-20.7-7.55,1.02-3.59,1.69-7,2.97-10.18,1.13-2.82.42-6.88,4.6-8.14q1.3,5.24-3.34,15.3c.89.15,1.67.44,2.43.39,3.68-.21,4.1-.62,4.69-4.27.61-3.79,1.58-5.16,6.22-7.68Z" style="stroke-width: 0px;"/>
      <path d="M459.47,423.05c-2.06.92-3.15,1.4-4.85,2.16-4.75-3.52-11.34-6.69-16.94-12.15,1.16-1.25,2.04-2.19,3.05-3.27,2.38,1.6,4.57,3.06,7.23,4.84,0-2.86.53-5.14-.81-7.97-1.42-2.98-.56-6.65,1.1-9.73.31-.57,1.33-.76,2.41-1.32.91,4.62-.74,9.21,1.94,12.52,5.14-.38,10.01-.74,15.22-1.12.37,3.4-2.23,4.26-3.59,6.17h-11.33c-1.76,1.65,2.42,3.25-.15,4.49,1.78,1.42,3.65,2.9,6.74,5.37Z" style="stroke-width: 0px;"/>
      <path d="M322.47,476.41q5.79.55,6.2,8.83c1.55-1.55,2.85-2.66,3.91-3.96,1.12-1.36,1.94-2.97,3.03-4.36,1.94-2.48,4.17-4.44,8.22-2.98-2.36,3.14-4.66,6.21-7.24,9.64,2.97,4.17,7.89,6.44,11.34,10.26-3.21,2.85-3.39,2.94-5.95,1.04-3.24-2.4-6.37-4.93-9.51-7.38-2.32,2.35-3.12,4.97-2.59,7.99.35,1.99.37,1.99-1.99,3.75-.77-1-1.94-1.92-2.23-3.05-.44-1.7.49-3.77-1.5-5.02.68-4.83-1.01-9.43-1.68-14.74Z" style="stroke-width: 0px;"/>
      <path d="M379.71,470.45c-2.75.2-4.93,1.17-6.8-1-1.9-2.22-3.49-1.38-5.9-.36-2.14.9-3.05,2.69-4.79,3.68v7.35c.69.63,1.67,1.31,2.38,2.22,1.94,2.47,4.34,3.51,7.18,1.98,2-1.08,4.65-1.5,4.65-4.98,0-2.37,2.57-3.37,4.66-5.2,1.29,3.14.5,5.06-.39,7.5-1.68,4.56-5.99,5.08-9.21,7.07-2.86,1.77-6.29.06-9-1.22-2.66-1.25-4.33-4.22-5.16-7.01-.74-2.48-1.01-5.51-.27-7.93,1.05-3.42,4.47-4.95,7.6-6.41,2.47-1.15,7.43-1.53,9.63-1.1,2.89.56,3.93,2.64,5.41,5.41Z" style="stroke-width: 0px;"/>
      <path d="M142.25,401.31c-1.12-2.14-1.71-3.28-2.2-4.22,1.33-1.28,2.76-2.67,4.31-4.18-1.34-2.43-2.8-4.21-3.32-6.23-.74-2.89-2.49-3.23-4.98-3.4-2.92-.2-3.15-.83-3.27-5.37h23.22c.54,1.33,1.22,2.92,1.82,4.54.15.41.02.93.02,1.23-5.05,5.71-10.01,11.32-15.6,17.63ZM151.24,382.08c-1.85-.25-4.68-.42-8.01.37,1.11,2.11,1.97,3.75,2.72,5.18,2.01-2.11,3.75-3.93,5.28-5.55Z" style="stroke-width: 0px;"/>
      <path d="M205.47,454.89c.44,4.41.92,9.28,1.47,14.74-1.9-.76-3.44-1.38-5.21-2.1v-13.03c-5.99-.83-6.25-.69-9.66,5.3-1.11-.78-2.18-1.53-3.78-2.65,1.65-2.45,3.19-4.8,4.8-7.12,2.02-2.92,4.06-5.82,6.15-8.7,1.23-1.69,2.83-2.23,4.79-1.24,2.14,4.43-3.91,5.18-4.01,9.12,2.43.29,4.64.77,7.16-.25,4.28-1.73,8.36-1.74,11.31,3.23-4.33.69-8.92-.89-13.01,2.69Z" style="stroke-width: 0px;"/>
      <path d="M480.6,296.3c2.28,2.85,3.75,4.68,5.42,6.76,2.06-.45,4.54-1,7.48-1.65-.31,1.43-.27,2.18-.62,2.65-2.79,3.81-2.8,3.78-.42,7.31.36.53.67,1.15.78,1.77.12.65-.04,1.35-.09,2.44-2.03-.99-3.87-1.88-6.05-2.94-1.74,2.04-3.53,4.13-5.58,6.53-.46-1.14-.96-1.75-.88-2.27.62-4.31-.66-7.07-5.46-7.4-.53-.04-1-.93-1.8-1.73,2.33-.84,4.49-1.62,7.22-2.6v-8.87Z" style="stroke-width: 0px;"/>
      <path d="M133.75,298.22v8.33c2.49.86,4.75,1.64,7.85,2.71-2.83,1.08-4.92,1.88-7.63,2.91v8.57c-1.53-1.16-2.33-1.59-2.88-2.23-1.18-1.37-2.24-2.85-3.5-4.49-2.49.91-4.86,2.73-8.66.6,1.1-.59,2.05-.85,2.63-1.46,3.34-3.46,3.3-3.48-.06-7.77-.24-.31-.21-.84-.34-1.43,1.16-1.5,2.62-1.32,4.04-.43,2.31,1.44,3.93,1.74,4.92-1.55.38-1.26,2.01-2.15,3.61-3.76Z" style="stroke-width: 0px;"/>
      <path d="M349.46,470.47c.66.46,1.41.71,1.67,1.22.96,1.91,2.08,3.84,2.56,5.89,1.2,5.05,2.09,10.18,3.16,15.54h-4.31c-1.46-5.08-2.95-10.26-4.42-15.44-.24-.84-.11-1.91-.59-2.53-2.22-2.82.56-3.28,1.93-4.69Z" style="stroke-width: 0px;"/>
      <path d="M165.24,394.07c-.44,1.22-.53,2.84-1.38,3.58-4.63,4.02-10.77,5.67-15.57,9.55-.74.59-3.41.94-3.19-1.97.03-.46-.85-.99-1.3-1.48,6.92-3.34,13.15-8.08,20.3-10.96.38.43.77.85,1.15,1.28Z" style="stroke-width: 0px;"/>
      <path d="M299.21,493.28c-.66-1.84-1.52-3.42-1.77-5.08-.43-2.9,2.11-5.92,4.87-6.19,2.9-.29,5.99,2.05,6.34,4.79.41,3.24-2,6.21-5.35,6.47-1.36.11-2.73.02-4.1.02Z" style="stroke-width: 0px;"/>
    </g>
  </g>
  <circle cx="305.13" cy="309.52" r="141.82" style="fill: none; stroke: #231f20; stroke-miterlimit: 10; stroke-width: 6px;"/>
  <g>
    <path d="M136.22,337.67l-1.43-7.89,4.08-.74,3.74,20.64-4.08.74-1.43-7.89-23.27,4.22-.88-4.85,23.27-4.22Z" style="stroke-width: 0px;"/>
    <path d="M143.42,352.79l1.57,4.67-10.59,3.55,3.58,10.65,10.59-3.55,1.57,4.68-26.36,8.84-1.57-4.67,11.69-3.92-3.58-10.66-11.69,3.92-1.57-4.67,26.36-8.84Z" style="stroke-width: 0px;"/>
    <path d="M154.92,382.79l2.62,5.15-20.68,20.67-2.36-4.65,11.27-10.47c2.22-2.12,4.68-4.28,7.03-6.39l-.08-.15c-3.09.71-6.26,1.41-9.28,1.95l-15.12,2.89-2.28-4.49,28.88-4.51ZM138.62,386.92l5.93,11.67-3.45,1.75-5.93-11.67,3.45-1.75Z" style="stroke-width: 0px;"/>
    <path d="M163.14,397.69l2.66,4.15-23.4,14.99-2.66-4.15,23.4-14.99Z" style="stroke-width: 0px;"/>
    <path d="M169.02,406.92l5.57,6.93c3.58,4.45,4.84,8.82.86,12.02-2.04,1.64-4.92,2.12-7.11.76l-.13.11c1.38,2.83,1.13,5.94-1.8,8.29-4.33,3.48-9.21,1.56-13.04-3.22l-6.01-7.49,21.67-17.4ZM156.04,429.01c2.55,3.18,5.12,4.04,7.56,2.08,2.28-1.83,1.89-4.35-.71-7.58l-2.61-3.25-6.85,5.5,2.61,3.25ZM165.36,420.69c2.43,3.02,4.64,3.36,6.52,1.85,2.09-1.68,1.75-3.74-.5-6.55l-2.27-2.82-5.95,4.78,2.2,2.74Z" style="stroke-width: 0px;"/>
    <path d="M173.79,434.51c6.07-6.63,13.35-7.16,18.69-2.27,5.34,4.89,5.44,12.2-.61,18.82-6.07,6.63-13.5,7.33-18.84,2.44-5.34-4.89-5.31-12.35.76-18.98ZM188.14,447.64c4.21-4.6,4.68-9.29,1.45-12.24-3.22-2.95-7.85-2.07-12.06,2.53-4.21,4.6-4.83,9.45-1.6,12.4,3.22,2.95,8,1.91,12.21-2.7Z" style="stroke-width: 0px;"/>
    <path d="M204.62,443.27l4.1,2.74-7.03,10.49.11.08,15.25-4.99,4.55,3.05-13.14,4.25-1.13,19.65-4.52-3.03,1.03-15.04-6.08,1.9-4.51,6.74-4.1-2.74,15.47-23.09Z" style="stroke-width: 0px;"/>
    <path d="M211.9,476.87l4.07-1.77c.95,2.58,2.78,4.9,5.1,6.04,2.81,1.38,4.97.87,5.93-1.08,1.01-2.05-.28-3.5-2.07-5.58l-2.68-3.16c-1.95-2.23-3.58-5.45-1.79-9.09,1.96-3.97,6.97-5.3,11.83-2.91,2.91,1.43,5.14,4.03,6.12,6.96l-3.66,1.69c-.92-2.13-2.22-3.76-4.36-4.81-2.36-1.16-4.45-.82-5.35,1.01-.96,1.96.58,3.62,2.23,5.48l2.67,3.07c2.36,2.7,3.51,5.59,1.73,9.21-1.99,4.04-7,5.76-12.6,3.01-3.37-1.66-5.97-4.59-7.18-8.08Z" style="stroke-width: 0px;"/>
    <path d="M244.09,465.28l15.84,5.37-1.33,3.93-11.17-3.79-2.29,6.74,9.47,3.21-1.33,3.93-9.46-3.21-2.64,7.79,11.57,3.92-1.33,3.93-16.24-5.51,8.92-26.32Z" style="stroke-width: 0px;"/>
    <path d="M264.47,471.95l4.98.92,5.66,16.93,1.75,6.35.17.03c.29-2.87.54-6.4,1.1-9.44l2.19-11.87,4.61.85-5.04,27.33-4.98-.92-5.65-16.95-1.75-6.33-.17-.03c-.3,2.93-.52,6.3-1.08,9.34l-2.21,11.97-4.61-.85,5.04-27.33Z" style="stroke-width: 0px;"/>
    <path d="M330.55,474.88l4.83-1.01,2.6,12.36.13-.03,7.08-14.4,5.36-1.13-6.14,12.37,13.27,14.53-5.32,1.12-10.04-11.25-2.89,5.68,1.67,7.93-4.82,1.01-5.72-27.2Z" style="stroke-width: 0px;"/>
    <path d="M354.2,469.23l4.69-1.51,8.53,26.46-4.69,1.51-8.53-26.46Z" style="stroke-width: 0px;"/>
    <path d="M368.94,479.27c-3.66-8.33-.63-15.57,5.81-18.4,3.19-1.4,6.4-1,8.75,0l-1.13,3.97c-1.88-.73-3.8-.96-5.8-.09-4.14,1.82-5.57,6.63-3.06,12.34,2.55,5.8,6.84,8.12,11.1,6.24,2.25-.99,3.54-2.8,4.28-5l3.66,1.77c-1.01,3.3-3.08,5.78-6.38,7.23-6.39,2.81-13.53.36-17.23-8.05Z" style="stroke-width: 0px;"/>
    <path d="M385.64,456.23l4.19-2.6,6.67,10.73.11-.07,1.74-15.95,4.65-2.89-1.54,13.72,17.43,9.12-4.62,2.87-13.28-7.14-.77,6.32,4.28,6.89-4.19,2.6-14.67-23.61Z" style="stroke-width: 0px;"/>
    <path d="M405.74,443.27l6.8-5.73c4.37-3.68,8.71-5.05,11.99-1.15,1.69,2,2.24,4.87.93,7.09l.11.13c2.8-1.45,5.91-1.27,8.33,1.6,3.58,4.25,1.78,9.17-2.9,13.12l-7.34,6.19-17.91-21.25ZM419.59,446.6c2.96-2.5,3.25-4.72,1.69-6.56-1.73-2.05-3.78-1.66-6.54.66l-2.77,2.33,4.92,5.83,2.69-2.27ZM428.12,455.72c3.12-2.63,3.92-5.21,1.9-7.61-1.88-2.24-4.4-1.79-7.57.89l-3.18,2.68,5.66,6.72,3.18-2.68Z" style="stroke-width: 0px;"/>
    <path d="M433.22,437.81c-6.78-5.91-7.48-13.17-2.72-18.63,4.76-5.46,12.07-5.73,18.83.16,6.78,5.91,7.64,13.32,2.89,18.78-4.76,5.46-12.22,5.61-18.99-.3ZM446,423.16c-4.7-4.1-9.4-4.45-12.27-1.16-2.87,3.29-1.88,7.9,2.82,12s9.57,4.6,12.44,1.31c2.87-3.29,1.71-8.04-2.99-12.14Z" style="stroke-width: 0px;"/>
    <path d="M441.23,406.82l2.65-4.16,10.66,6.78.07-.11-5.34-15.13,2.94-4.62,4.56,13.04,19.67.67-2.92,4.59-15.06-.68,2.04,6.04,6.84,4.35-2.65,4.16-23.45-14.92Z" style="stroke-width: 0px;"/>
    <path d="M474.66,398.74l-1.86-4.03c2.56-1.01,4.83-2.89,5.92-5.24,1.31-2.84.75-4.99-1.22-5.9-2.08-.96-3.49.36-5.52,2.2l-3.09,2.75c-2.18,2-5.36,3.71-9.05,2-4.02-1.86-5.47-6.84-3.19-11.76,1.37-2.95,3.91-5.24,6.82-6.28l1.77,3.61c-2.11.97-3.7,2.31-4.7,4.47-1.11,2.39-.71,4.47,1.13,5.32,1.98.92,3.6-.66,5.43-2.36l3-2.74c2.64-2.42,5.51-3.64,9.16-1.95,4.09,1.89,5.92,6.87,3.3,12.53-1.58,3.41-4.44,6.07-7.9,7.37Z" style="stroke-width: 0px;"/>
    <path d="M462.31,366.81l4.99-15.96,3.96,1.24-3.52,11.26,6.8,2.12,2.98-9.54,3.96,1.24-2.98,9.54,7.85,2.45,3.65-11.67,3.96,1.24-5.12,16.37-26.53-8.29Z" style="stroke-width: 0px;"/>
    <path d="M468.48,346.29l.8-5,16.79-6.06,6.31-1.9.03-.17c-2.87-.22-6.41-.39-9.47-.87l-11.92-1.9.74-4.63,27.44,4.38-.8,5-16.81,6.06-6.29,1.91-.03.17c2.94.23,6.31.37,9.37.86l12.02,1.92-.74,4.63-27.45-4.38Z" style="stroke-width: 0px;"/>
  </g>
  <polygon points="124.77 288.71 129.26 297.8 139.29 299.26 132.03 306.34 133.74 316.33 124.77 311.61 115.79 316.33 117.51 306.34 110.25 299.26 120.28 297.8 124.77 288.71" style="fill: #272a27; stroke-width: 0px;"/>
  <polygon points="485.49 288.71 489.98 297.8 500.01 299.26 492.75 306.34 494.46 316.33 485.49 311.61 476.51 316.33 478.23 306.34 470.97 299.26 481 297.8 485.49 288.71" style="fill: #272a27; stroke-width: 0px;"/>
  <circle cx="305.13" cy="492.28" r="5.49" style="fill: #272a27; stroke-width: 0px;"/>
</svg>